<?xml version="1.0" encoding="utf-8"?>
<!-- Generator: Adobe Illustrator 19.1.0, SVG Export Plug-In . SVG Version: 6.00 Build 0)  -->
<svg version="1.1" id="logo" xmlns="http://www.w3.org/2000/svg" xmlns:xlink="http://www.w3.org/1999/xlink" x="0px" y="0px"
	 viewBox="0 0 110 130" enable-background="new 0 0 110 130" xml:space="preserve">
<path d="M100,0H10v10h90V0z M0,10v30h10V10H0z M30,30h10V20H30V30z M90,70V60H30v10H90z M20,100h10V90H20V100z M60,110v-10H30v10H60
	z M30,90h60V80H30V90z M10,50h10v10h10V50h70V40H10V50z M70,130v-20H60v20H70z M100,10v30h10V10H100z M100,80V70H90v10H100z"/>
</svg>
